{"title":"Fire (1996)","uid":7267569,"size":671343924,"categoryP":"video","categoryS":"movies","magnet":"?xt=urn:btih:97a41458dd01b4ed59ab400f30315f14d939cff1&amp;dn=Fire+%281996%29&amp;tr=udp%3A%2F%2Ftracker.openbittorrent.com%3A80&amp;tr=udp%3A%2F%2Fopen.demonii.com%3A1337&amp;tr=udp%3A%2F%2Ftracker.coppersurfer.tk%3A6969&amp;tr=udp%3A%2F%2Fexodus.desync.com%3A6969","seeders":5,"leechers":1,"uploader":"LazerMasken","files":2,"time":1336947903,"description":"Plot: Two neglected wives fall in love with each other.\n\nMade in India, where the film caused riots. Banned in Pakistan.\n\nThis torrent includes a short documentary about the film.\n\nMediainfo:\nGeneral\nFormat                                   : AVI\nFormat/Info                              : Audio Video Interleave\nFile size                                : 563 MiB\nDuration                                 : 1h 47mn\nOverall bit rate                         : 731 Kbps\n\nVideo\nID                                       : 0\nFormat                                   : MPEG-4 Visual\nCodec ID                                 : DIVX\nCodec ID/Info                            : Project Mayo\nCodec ID/Hint                            : DivX 4\nDuration                                 : 1h 47mn\nBit rate                                 : 565 Kbps\nWidth                                    : 576 pixels\nHeight                                   : 320 pixels\nDisplay aspect ratio                     : 16:9\nFrame rate                               : 29.970 fps\nColor space                              : YUV\nChroma subsampling                       : 4:2:0\nCompression mode                         : Lossy\nBits/(Pixel*Frame)                       : 0.102\nStream size                              : 435 MiB (77%)\n\nAudio\nID                                       : 1\nFormat                                   : MPEG Audio\nCodec ID                                 : 55\nCodec ID/Hint                            : MP3\nDuration                                 : 1h 47mn\nBit rate                                 : 128 Kbps\nChannel(s)                               : 2 channels\nSampling rate                            : 48.0 KHz\nCompression mode                         : Lossy\nStream size                              : 98.6 MiB (18%)\nAlignment                                : Aligned on interleaves\n","torrent":{"xt":"urn:btih:97a41458dd01b4ed59ab400f30315f14d939cff1","amp;dn":"Fire+%281996%29","amp;tr":["udp%3A%2F%2Ftracker.openbittorrent.com%3A80","udp%3A%2F%2Fopen.demonii.com%3A1337","udp%3A%2F%2Ftracker.coppersurfer.tk%3A6969","udp%3A%2F%2Fexodus.desync.com%3A6969"],"infoHash":"97a41458dd01b4ed59ab400f30315f14d939cff1","infoHashBuffer":{"type":"Buffer","data":[151,164,20,88,221,1,180,237,89,171,64,15,48,49,95,20,217,57,207,241]},"announce":[],"urlList":[]}}